<svg width="249.239" xmlns="http://www.w3.org/2000/svg" height="249.422" id="screenshot-e56ed891-2ee7-8014-8007-2fb9fcb18a99" viewBox="0 0 249.239 249.422" xmlns:xlink="http://www.w3.org/1999/xlink" fill="none" version="1.1"><g id="shape-e56ed891-2ee7-8014-8007-2fb9fcb18a99" rx="0" ry="0" style="fill: rgb(0, 0, 0);"><g id="shape-e56ed891-2ee7-8014-8007-2fb9fcb18aa9"><g class="fills" id="fills-e56ed891-2ee7-8014-8007-2fb9fcb18aa9"><path d="M124.62147521972656,1.6046192646026611C56.7885856628418,1.6046192646026611,1.6037722826004028,56.830081939697266,1.6037722826004028,124.71155548095703C1.6037722826004028,192.5933837890625,56.7885856628418,247.8201904296875,124.62147521972656,247.8201904296875C192.45118713378906,247.8201904296875,247.6389923095703,192.5933837890625,247.6389923095703,124.71155548095703C247.6389923095703,56.830081939697266,192.45118713378906,1.6046192646026611,124.62147521972656,1.6046192646026611ZM124.62147521972656,249.422119140625C55.90534591674805,249.422119140625,-0.0002316794852958992,193.4779052734375,-0.0002316794852958992,124.71155548095703C-0.0002316794852958992,55.946048736572266,55.90534591674805,0.000005035833055444527,124.62147521972656,0.000005035833055444527C193.33766174316406,0.000005035833055444527,249.23951721191406,55.946048736572266,249.23951721191406,124.71155548095703C249.23951721191406,193.4779052734375,193.33766174316406,249.422119140625,124.62147521972656,249.422119140625" style="stroke-width: 0.147418; fill-rule: nonzero; stroke: none; fill: rgb(48, 48, 48); fill-opacity: 0.6;"/></g></g><g id="shape-e56ed891-2ee7-8014-8007-2fb9fcb18aaa"><g class="fills" id="fills-e56ed891-2ee7-8014-8007-2fb9fcb18aaa"><path d="M124.62147521972656,16.63654136657715C65.07185363769531,16.63654136657715,16.62403678894043,65.11951446533203,16.62403678894043,124.71155548095703C16.62403678894043,184.304443359375,65.07185363769531,232.7855224609375,124.62147521972656,232.7855224609375C184.17091369628906,232.7855224609375,232.61524963378906,184.304443359375,232.61524963378906,124.71155548095703C232.61524963378906,65.11951446533203,184.17091369628906,16.63654136657715,124.62147521972656,16.63654136657715ZM124.62147521972656,234.3907470703125C64.18861389160156,234.3907470703125,15.020581245422363,185.1884765625,15.020581245422363,124.71155548095703C15.020581245422363,64.23267364501953,64.18861389160156,15.031376838684082,124.62147521972656,15.031376838684082C185.05409240722656,15.031376838684082,234.21913146972656,64.23267364501953,234.21913146972656,124.71155548095703C234.21913146972656,185.1884765625,185.05409240722656,234.3907470703125,124.62147521972656,234.3907470703125" style="stroke-width: 0.147418; fill-rule: nonzero; stroke: none; fill: rgb(48, 48, 48); fill-opacity: 0.6;"/></g></g><g id="shape-e56ed891-2ee7-8014-8007-2fb9fcb18aab"><g class="fills" id="fills-e56ed891-2ee7-8014-8007-2fb9fcb18aab"><path d="M124.62147521972656,31.66803550720215C73.35536193847656,31.66803550720215,31.64491081237793,73.40576934814453,31.64491081237793,124.71155548095703C31.64491081237793,176.0157470703125,73.35536193847656,217.754150390625,124.62147521972656,217.754150390625C175.88758850097656,217.754150390625,217.59486389160156,176.0157470703125,217.59486389160156,124.71155548095703C217.59486389160156,73.40576934814453,175.88758850097656,31.66803550720215,124.62147521972656,31.66803550720215ZM124.62147521972656,219.3592529296875C72.46888732910156,219.3592529296875,30.04115104675293,176.8995361328125,30.04115104675293,124.71155548095703C30.04115104675293,72.52210235595703,72.46888732910156,30.0628719329834,124.62147521972656,30.0628719329834C176.7705841064453,30.0628719329834,219.19862365722656,72.52210235595703,219.19862365722656,124.71155548095703C219.19862365722656,176.8995361328125,176.7705841064453,219.3592529296875,124.62147521972656,219.3592529296875" style="stroke-width: 0.147418; fill-rule: nonzero; stroke: none; fill: rgb(48, 48, 48); fill-opacity: 0.6;"/></g></g><g id="shape-e56ed891-2ee7-8014-8007-2fb9fcb18aac"><g class="fills" id="fills-e56ed891-2ee7-8014-8007-2fb9fcb18aac"><path d="M124.62147521972656,46.699405670166016C81.63539123535156,46.699405670166016,46.6654167175293,81.69556427001953,46.6654167175293,124.71155548095703C46.6654167175293,167.726806640625,81.63539123535156,202.7225341796875,124.62147521972656,202.7225341796875C167.6040802001953,202.7225341796875,202.5742950439453,167.726806640625,202.5742950439453,124.71155548095703C202.5742950439453,81.69556427001953,167.6040802001953,46.699405670166016,124.62147521972656,46.699405670166016ZM124.62147521972656,204.32763671875C80.75227355957031,204.32763671875,45.0615348815918,168.611083984375,45.0615348815918,124.71155548095703C45.0615348815918,80.81153106689453,80.75227355957031,45.094791412353516,124.62147521972656,45.094791412353516C168.48731994628906,45.094791412353516,204.17823791503906,80.81153106689453,204.17823791503906,124.71155548095703C204.17823791503906,168.611083984375,168.48731994628906,204.32763671875,124.62147521972656,204.32763671875" style="stroke-width: 0.147418; fill-rule: nonzero; stroke: none; fill: rgb(48, 48, 48); fill-opacity: 0.6;"/></g></g><g id="shape-e56ed891-2ee7-8014-8007-2fb9fcb18aad"><g class="fills" id="fills-e56ed891-2ee7-8014-8007-2fb9fcb18aad"><path d="M124.62147521972656,61.731021881103516C89.91896057128906,61.731021881103516,61.6858024597168,89.98474884033203,61.6858024597168,124.71155548095703C61.6858024597168,159.4383544921875,89.91896057128906,187.690185546875,124.62147521972656,187.690185546875C159.32057189941406,187.690185546875,187.55372619628906,159.4383544921875,187.55372619628906,124.71155548095703C187.55372619628906,89.98474884033203,159.32057189941406,61.731021881103516,124.62147521972656,61.731021881103516ZM124.62147521972656,189.29443359375C89.03578186035156,189.29443359375,60.08527755737305,160.3223876953125,60.08527755737305,124.71155548095703C60.08527755737305,89.10095977783203,89.03578186035156,60.129215240478516,124.62147521972656,60.129215240478516C160.2069854736328,60.129215240478516,189.1576690673828,89.10095977783203,189.1576690673828,124.71155548095703C189.1576690673828,160.3223876953125,160.2069854736328,189.29443359375,124.62147521972656,189.29443359375" style="stroke-width: 0.147418; fill-rule: nonzero; stroke: none; fill: rgb(48, 48, 48); fill-opacity: 0.6;"/></g></g><g id="shape-e56ed891-2ee7-8014-8007-2fb9fcb18aae"><g class="fills" id="fills-e56ed891-2ee7-8014-8007-2fb9fcb18aae"><path d="M124.62147521972656,76.76575469970703C98.20228576660156,76.76575469970703,76.70936584472656,98.27417755126953,76.70936584472656,124.71155548095703C76.70936584472656,151.1494140625,98.20228576660156,172.6583251953125,124.62147521972656,172.6583251953125C151.0402374267578,172.6583251953125,172.5334014892578,151.1494140625,172.5334014892578,124.71155548095703C172.5334014892578,98.27417755126953,151.0402374267578,76.76575469970703,124.62147521972656,76.76575469970703ZM124.62147521972656,174.262451171875C97.31922912597656,174.262451171875,75.10566711425781,152.033935546875,75.10566711425781,124.71155548095703C75.10566711425781,97.38758087158203,97.31922912597656,75.16065216064453,124.62147521972656,75.16065216064453C151.9236602783203,75.16065216064453,174.13710021972656,97.38758087158203,174.13710021972656,124.71155548095703C174.13710021972656,152.033935546875,151.9236602783203,174.262451171875,124.62147521972656,174.262451171875" style="stroke-width: 0.147418; fill-rule: nonzero; stroke: none; fill: rgb(48, 48, 48); fill-opacity: 0.6;"/></g></g><g id="shape-e56ed891-2ee7-8014-8007-2fb9fcb18aaf"><g class="fills" id="fills-e56ed891-2ee7-8014-8007-2fb9fcb18aaf"><path d="M124.62147521972656,91.79712677001953C106.48573303222656,91.79712677001953,91.72993469238281,106.56031036376953,91.72993469238281,124.71155548095703C91.72993469238281,142.86083984375,106.48573303222656,157.6263427734375,124.62147521972656,157.6263427734375C142.75697326660156,157.6263427734375,157.5098419189453,142.86083984375,157.5098419189453,124.71155548095703C157.5098419189453,106.56031036376953,142.75697326660156,91.79712677001953,124.62147521972656,91.79712677001953ZM124.62147521972656,159.2305908203125C105.59938049316406,159.2305908203125,90.12623596191406,143.744873046875,90.12623596191406,124.71155548095703C90.12623596191406,105.67700958251953,105.59938049316406,90.19202423095703,124.62147521972656,90.19202423095703C143.64015197753906,90.19202423095703,159.11329650878906,105.67700958251953,159.11329650878906,124.71155548095703C159.11329650878906,143.744873046875,143.64015197753906,159.2305908203125,124.62147521972656,159.2305908203125" style="stroke-width: 0.147418; fill-rule: nonzero; stroke: none; fill: rgb(48, 48, 48); fill-opacity: 0.6;"/></g></g><g id="shape-e56ed891-2ee7-8014-8007-2fb9fcb18ab0"><g class="fills" id="fills-e56ed891-2ee7-8014-8007-2fb9fcb18ab0"><path d="M124.62147521972656,106.82849884033203C114.76606750488281,106.82849884033203,106.75050354003906,114.85022735595703,106.75050354003906,124.71155548095703C106.75050354003906,134.5718994140625,114.76606750488281,142.59423828125,124.62147521972656,142.59423828125C134.47340393066406,142.59423828125,142.48902893066406,134.5718994140625,142.48902893066406,124.71155548095703C142.48902893066406,114.85022735595703,134.47340393066406,106.82849884033203,124.62147521972656,106.82849884033203ZM124.62147521972656,144.198486328125C113.88294982910156,144.198486328125,105.14656066894531,135.4564208984375,105.14656066894531,124.71155548095703C105.14656066894531,113.96619415283203,113.88294982910156,105.22388458251953,124.62147521972656,105.22388458251953C135.35682678222656,105.22388458251953,144.09278869628906,113.96619415283203,144.09278869628906,124.71155548095703C144.09278869628906,135.4564208984375,135.35682678222656,144.198486328125,124.62147521972656,144.198486328125" style="stroke-width: 0.147418; fill-rule: nonzero; stroke: none; fill: rgb(48, 48, 48); fill-opacity: 0.6;"/></g></g></g></svg>