<svg width="286.943" xmlns="http://www.w3.org/2000/svg" height="10.097" id="screenshot-e56ed891-2ee7-8014-8007-2fb9fcb18a9a" viewBox="-0 0 286.943 10.097" xmlns:xlink="http://www.w3.org/1999/xlink" fill="none" version="1.1"><g id="shape-e56ed891-2ee7-8014-8007-2fb9fcb18a9a" rx="0" ry="0" style="fill: rgb(0, 0, 0);"><g id="shape-e56ed891-2ee7-8014-8007-2fb9fcb18ab1"><g class="fills" id="fills-e56ed891-2ee7-8014-8007-2fb9fcb18ab1"><path d="M10.08996868133545,10.097023010253906L0.00012526678619906306,10.097023010253906L0.00012526678619906306,0.00009889928332995623L10.08996868133545,0.00009889928332995623L10.08996868133545,10.097023010253906" style="stroke-width: 0.0730434; fill-rule: nonzero; stroke: none; fill: rgb(48, 48, 48); fill-opacity: 0.6;"/></g></g><g id="shape-e56ed891-2ee7-8014-8007-2fb9fcb18ab2"><g class="fills" id="fills-e56ed891-2ee7-8014-8007-2fb9fcb18ab2"><path d="M33.159183502197266,10.097023010253906L23.069034576416016,10.097023010253906L23.069034576416016,0.00009889928332995623L33.159183502197266,0.00009889928332995623L33.159183502197266,10.097023010253906" style="stroke-width: 0.0730434; fill-rule: nonzero; stroke: none; fill: rgb(48, 48, 48); fill-opacity: 0.6;"/></g></g><g id="shape-e56ed891-2ee7-8014-8007-2fb9fcb18ab3"><g class="fills" id="fills-e56ed891-2ee7-8014-8007-2fb9fcb18ab3"><path d="M56.234012603759766,10.097023010253906L46.144657135009766,10.097023010253906L46.144657135009766,0.00009889928332995623L56.234012603759766,0.00009889928332995623L56.234012603759766,10.097023010253906" style="stroke-width: 0.0730434; fill-rule: nonzero; stroke: none; fill: rgb(48, 48, 48); fill-opacity: 0.6;"/></g></g><g id="shape-e56ed891-2ee7-8014-8007-2fb9fcb18ab4"><g class="fills" id="fills-e56ed891-2ee7-8014-8007-2fb9fcb18ab4"><path d="M79.3033447265625,10.097023010253906L69.21337890625,10.097023010253906L69.21337890625,0.00009889928332995623L79.3033447265625,0.00009889928332995623L79.3033447265625,10.097023010253906" style="stroke-width: 0.0730434; fill-rule: nonzero; stroke: none; fill: rgb(48, 48, 48); fill-opacity: 0.6;"/></g></g><g id="shape-e56ed891-2ee7-8014-8007-2fb9fcb18ab5"><g class="fills" id="fills-e56ed891-2ee7-8014-8007-2fb9fcb18ab5"><path d="M102.3724365234375,10.097023010253906L92.2825927734375,10.097023010253906L92.2825927734375,0.00009889928332995623L102.3724365234375,0.00009889928332995623L102.3724365234375,10.097023010253906" style="stroke-width: 0.0730434; fill-rule: nonzero; stroke: none; fill: rgb(48, 48, 48); fill-opacity: 0.6;"/></g></g><g id="shape-e56ed891-2ee7-8014-8007-2fb9fcb18ab6"><g class="fills" id="fills-e56ed891-2ee7-8014-8007-2fb9fcb18ab6"><path d="M125.4481201171875,10.097023010253906L115.3580322265625,10.097023010253906L115.3580322265625,0.00009889928332995623L125.4481201171875,0.00009889928332995623L125.4481201171875,10.097023010253906" style="stroke-width: 0.0730434; fill-rule: nonzero; stroke: none; fill: rgb(48, 48, 48); fill-opacity: 0.6;"/></g></g><g id="shape-e56ed891-2ee7-8014-8007-2fb9fcb18ab7"><g class="fills" id="fills-e56ed891-2ee7-8014-8007-2fb9fcb18ab7"><path d="M148.5167236328125,10.097023010253906L138.4273681640625,10.097023010253906L138.4273681640625,0.00009889928332995623L148.5167236328125,0.00009889928332995623L148.5167236328125,10.097023010253906" style="stroke-width: 0.0730434; fill-rule: nonzero; stroke: none; fill: rgb(48, 48, 48); fill-opacity: 0.6;"/></g></g><g id="shape-e56ed891-2ee7-8014-8007-2fb9fcb18ab8"><g class="fills" id="fills-e56ed891-2ee7-8014-8007-2fb9fcb18ab8"><path d="M171.5858154296875,10.097023010253906L161.4964599609375,10.097023010253906L161.4964599609375,0.00009889928332995623L171.5858154296875,0.00009889928332995623L171.5858154296875,10.097023010253906" style="stroke-width: 0.0730434; fill-rule: nonzero; stroke: none; fill: rgb(48, 48, 48); fill-opacity: 0.6;"/></g></g><g id="shape-e56ed891-2ee7-8014-8007-2fb9fcb18ab9"><g class="fills" id="fills-e56ed891-2ee7-8014-8007-2fb9fcb18ab9"><path d="M194.6610107421875,10.097023010253906L184.5711669921875,10.097023010253906L184.5711669921875,0.00009889928332995623L194.6610107421875,0.00009889928332995623L194.6610107421875,10.097023010253906" style="stroke-width: 0.0730434; fill-rule: nonzero; stroke: none; fill: rgb(48, 48, 48); fill-opacity: 0.6;"/></g></g><g id="shape-e56ed891-2ee7-8014-8007-2fb9fcb18aba"><g class="fills" id="fills-e56ed891-2ee7-8014-8007-2fb9fcb18aba"><path d="M217.7301025390625,10.097023010253906L207.6402587890625,10.097023010253906L207.6402587890625,0.00009889928332995623L217.7301025390625,0.00009889928332995623L217.7301025390625,10.097023010253906" style="stroke-width: 0.0730434; fill-rule: nonzero; stroke: none; fill: rgb(48, 48, 48); fill-opacity: 0.6;"/></g></g><g id="shape-e56ed891-2ee7-8014-8007-2fb9fcb18abb"><g class="fills" id="fills-e56ed891-2ee7-8014-8007-2fb9fcb18abb"><path d="M240.7989501953125,10.097023010253906L230.7093505859375,10.097023010253906L230.7093505859375,0.00009889928332995623L240.7989501953125,0.00009889928332995623L240.7989501953125,10.097023010253906" style="stroke-width: 0.0730434; fill-rule: nonzero; stroke: none; fill: rgb(48, 48, 48); fill-opacity: 0.6;"/></g></g><g id="shape-e56ed891-2ee7-8014-8007-2fb9fcb18abc"><g class="fills" id="fills-e56ed891-2ee7-8014-8007-2fb9fcb18abc"><path d="M263.8740234375,10.097023010253906L253.7845458984375,10.097023010253906L253.7845458984375,0.00009889928332995623L263.8740234375,0.00009889928332995623L263.8740234375,10.097023010253906" style="stroke-width: 0.0730434; fill-rule: nonzero; stroke: none; fill: rgb(48, 48, 48); fill-opacity: 0.6;"/></g></g><g id="shape-e56ed891-2ee7-8014-8007-2fb9fcb18abd"><g class="fills" id="fills-e56ed891-2ee7-8014-8007-2fb9fcb18abd"><path d="M286.9432373046875,10.097023010253906L276.8538818359375,10.097023010253906L276.8538818359375,0.00009889928332995623L286.9432373046875,0.00009889928332995623L286.9432373046875,10.097023010253906" style="stroke-width: 0.0730434; fill-rule: nonzero; stroke: none; fill: rgb(48, 48, 48); fill-opacity: 0.6;"/></g></g></g></svg>