<svg width="274.512" xmlns="http://www.w3.org/2000/svg" height="92.977" id="screenshot-e56ed891-2ee7-8014-8007-2fb9fcb18a95" viewBox="0 0 274.512 92.977" xmlns:xlink="http://www.w3.org/1999/xlink" fill="none" version="1.1"><g id="shape-e56ed891-2ee7-8014-8007-2fb9fcb18a95" rx="0" ry="0" style="fill: rgb(0, 0, 0);"><g id="shape-e56ed891-2ee7-8014-8007-2fb9fcb18a9c"><g class="fills" id="fills-e56ed891-2ee7-8014-8007-2fb9fcb18a9c"><path d="M274.51141357421875,19.60221290588379L235.1632843017578,0.00010154222400160506L195.3434600830078,19.82932472229004L155.5308380126953,0.00010154222400160506L115.71100616455078,19.82932472229004L75.90583038330078,0.00010154222400160506L36.09370040893555,19.82932472229004L0.00007235775410663337,1.8505654335021973L0.00007235775410663337,7.387491703033447L36.09370040893555,25.368051528930664L75.90583038330078,5.537912845611572L115.71100616455078,25.368051528930664L155.5308380126953,5.537912845611572L195.3434600830078,25.368051528930664L235.1632843017578,5.537912845611572L274.51141357421875,25.141855239868164L274.51141357421875,19.60221290588379" style="stroke-width: 0.063823; fill-rule: nonzero; stroke: none; fill: rgb(48, 48, 48); fill-opacity: 0.6;"/></g></g><g id="shape-e56ed891-2ee7-8014-8007-2fb9fcb18a9d"><g class="fills" id="fills-e56ed891-2ee7-8014-8007-2fb9fcb18a9d"><path d="M274.51141357421875,42.1396598815918L235.1632843017578,22.536630630493164L195.3434600830078,42.3656120300293L155.5308380126953,22.536630630493164L115.71100616455078,42.3656120300293L75.90583038330078,22.536630630493164L36.09370040893555,42.3656120300293L0.00007235775410663337,24.38846778869629L0.00007235775410663337,29.924936294555664L36.09370040893555,47.90433883666992L75.90583038330078,28.07493019104004L115.71100616455078,47.90433883666992L155.5308380126953,28.07493019104004L195.3434600830078,47.90433883666992L235.1632843017578,28.07493019104004L274.51141357421875,47.67838668823242L274.51141357421875,42.1396598815918" style="stroke-width: 0.063823; fill-rule: nonzero; stroke: none; fill: rgb(48, 48, 48); fill-opacity: 0.6;"/></g></g><g id="shape-e56ed891-2ee7-8014-8007-2fb9fcb18a9e"><g class="fills" id="fills-e56ed891-2ee7-8014-8007-2fb9fcb18a9e"><path d="M274.51141357421875,64.6771011352539L235.1632843017578,45.0733757019043L195.3434600830078,64.90213775634766L155.5308380126953,45.0733757019043L115.71100616455078,64.90213775634766L75.90583038330078,45.0733757019043L36.09370040893555,64.90213775634766L0.00007235775410663337,46.92499923706055L0.00007235775410663337,52.4614372253418L36.09370040893555,70.4408950805664L75.90583038330078,50.61213302612305L115.71100616455078,70.4408950805664L155.5308380126953,50.61213302612305L195.3434600830078,70.4408950805664L235.1632843017578,50.61213302612305L274.51141357421875,70.2142105102539L274.51141357421875,64.6771011352539" style="stroke-width: 0.063823; fill-rule: nonzero; stroke: none; fill: rgb(48, 48, 48); fill-opacity: 0.6;"/></g></g><g id="shape-e56ed891-2ee7-8014-8007-2fb9fcb18a9f"><g class="fills" id="fills-e56ed891-2ee7-8014-8007-2fb9fcb18a9f"><path d="M274.51141357421875,87.2115249633789L235.1632843017578,67.6084976196289L195.3434600830078,87.43814849853516L155.5308380126953,67.6084976196289L115.71100616455078,87.43814849853516L75.90583038330078,67.6084976196289L36.09370040893555,87.43814849853516L0.00007235775410663337,69.45987701416016L0.00007235775410663337,74.9968032836914L36.09370040893555,92.97647857666016L75.90583038330078,73.14725494384766L115.71100616455078,92.97647857666016L155.5308380126953,73.14725494384766L195.3434600830078,92.97647857666016L235.1632843017578,73.14725494384766L274.51141357421875,92.7493667602539L274.51141357421875,87.2115249633789" style="stroke-width: 0.063823; fill-rule: nonzero; stroke: none; fill: rgb(48, 48, 48); fill-opacity: 0.6;"/></g></g></g></svg>