<svg width="112.164" xmlns="http://www.w3.org/2000/svg" height="138.118" id="screenshot-e56ed891-2ee7-8014-8007-2fb9fcb18a98" viewBox="0 0 112.164 138.118" xmlns:xlink="http://www.w3.org/1999/xlink" fill="none" version="1.1"><g id="shape-e56ed891-2ee7-8014-8007-2fb9fcb18a98" rx="0" ry="0" style="fill: rgb(0, 0, 0);"><g id="shape-e56ed891-2ee7-8014-8007-2fb9fcb18aa7"><g class="fills" id="fills-e56ed891-2ee7-8014-8007-2fb9fcb18aa7"><path d="M112.16431427001953,14.742425918579102C112.16431427001953,22.8909854888916,105.56189727783203,29.49907875061035,97.41944122314453,29.49907875061035C89.27686309814453,29.49907875061035,82.67603302001953,22.8909854888916,82.67603302001953,14.742425918579102C82.67603302001953,6.593744277954102,89.27686309814453,-0.00025008225929923356,97.41944122314453,-0.00025008225929923356C105.56189727783203,-0.00025008225929923356,112.16431427001953,6.593744277954102,112.16431427001953,14.742425918579102" style="stroke-width: 0.0573851; fill-rule: nonzero; stroke: none; fill: rgb(62, 62, 62); fill-opacity: 0.6;"/></g></g><g id="shape-e56ed891-2ee7-8014-8007-2fb9fcb18aa8"><g class="fills" id="fills-e56ed891-2ee7-8014-8007-2fb9fcb18aa8"><path d="M34.0793571472168,128.12896728515625C20.770151138305664,128.12896728515625,9.98145580291748,117.33171844482422,9.98145580291748,104.01348114013672C9.98145580291748,90.69475555419922,20.770151138305664,79.89763641357422,34.0793571472168,79.89763641357422C47.3877067565918,79.89763641357422,58.1775016784668,90.69475555419922,58.1775016784668,104.01348114013672C58.1775016784668,117.33171844482422,47.3877067565918,128.12896728515625,34.0793571472168,128.12896728515625ZM34.0793571472168,69.90923309326172C15.25806713104248,69.90923309326172,0.000010124087566509843,85.17754364013672,0.000010124087566509843,104.01348114013672C0.000010124087566509843,122.84832000732422,15.25806713104248,138.11773681640625,34.0793571472168,138.11773681640625C52.9007682800293,138.11773681640625,68.15930938720703,122.84832000732422,68.15930938720703,104.01348114013672C68.15930938720703,85.17754364013672,52.9007682800293,69.90923309326172,34.0793571472168,69.90923309326172" style="stroke-width: 0.0573851; fill-rule: nonzero; stroke: none; fill: rgb(62, 62, 62); fill-opacity: 0.6;"/></g></g></g></svg>