<svg width="18.502" xmlns="http://www.w3.org/2000/svg" height="243.695" id="screenshot-e56ed891-2ee7-8014-8007-2fb9fcb18a96" viewBox="0 0 18.502 243.695" xmlns:xlink="http://www.w3.org/1999/xlink" fill="none" version="1.1"><g id="shape-e56ed891-2ee7-8014-8007-2fb9fcb18a96" rx="0" ry="0" style="fill: rgb(0, 0, 0);"><g id="shape-e56ed891-2ee7-8014-8007-2fb9fcb18aa0"><g class="fills" id="fills-e56ed891-2ee7-8014-8007-2fb9fcb18aa0"><path d="M16.09791374206543,225.5914764404297L9.25050163269043,232.4410858154297L2.4041881561279297,225.5914764404297C1.8538951873779297,225.04283142089844,0.9626598358154297,225.04283142089844,0.4128551185131073,225.5914764404297C-0.1381702721118927,226.1401824951172,-0.1381702721118927,227.03648376464844,0.4128551185131073,227.5851287841797L7.25892448425293,234.4342498779297L0.4128551185131073,241.29051208496094C-0.1381702721118927,241.8391571044922,-0.1381702721118927,242.72850036621094,0.4128551185131073,243.2836151123047C0.9626598358154297,243.83226013183594,1.8538951873779297,243.83226013183594,2.4041881561279297,243.2836151123047L9.25050163269043,236.42759704589844L16.09791374206543,243.2836151123047C16.64808464050293,243.83226013183594,17.53980827331543,243.83226013183594,18.08912467956543,243.2836151123047C18.63929557800293,242.72850036621094,18.63929557800293,241.8391571044922,18.08912467956543,241.29051208496094L11.24305534362793,234.4342498779297L18.08912467956543,227.5851287841797C18.63929557800293,227.03648376464844,18.63929557800293,226.1401824951172,18.08912467956543,225.5914764404297C17.53931999206543,225.04283142089844,16.64710807800293,225.04283142089844,16.09791374206543,225.5914764404297" style="stroke-width: 0.0703213; fill-rule: nonzero; stroke: none; fill: rgb(64, 64, 64); fill-opacity: 0.6;"/></g></g><g id="shape-e56ed891-2ee7-8014-8007-2fb9fcb18aa1"><g class="fills" id="fills-e56ed891-2ee7-8014-8007-2fb9fcb18aa1"><path d="M16.09791374206543,169.2981414794922L9.25050163269043,176.14768981933594L2.4041881561279297,169.2981414794922C1.8538951873779297,168.7496795654297,0.9626598358154297,168.7496795654297,0.4128551185131073,169.2981414794922C-0.1381702721118927,169.84678649902344,-0.1381702721118927,170.74327087402344,0.4128551185131073,171.29173278808594L7.25892448425293,178.1407928466797L0.4128551185131073,184.9901580810547C-0.1381702721118927,185.54527282714844,-0.1381702721118927,186.43528747558594,0.4128551185131073,186.98326110839844C0.9626598358154297,187.5388641357422,1.8538951873779297,187.5388641357422,2.4041881561279297,186.98326110839844L9.25050163269043,180.13438415527344L16.09791374206543,186.99021911621094C16.64808464050293,187.5388641357422,17.53980827331543,187.5388641357422,18.08912467956543,186.99021911621094C18.63929557800293,186.43528747558594,18.63929557800293,185.54527282714844,18.08912467956543,184.9901580810547L11.24305534362793,178.1407928466797L18.08912467956543,171.29173278808594C18.63929557800293,170.74327087402344,18.63929557800293,169.84678649902344,18.08912467956543,169.2981414794922C17.53931999206543,168.7496795654297,16.64710807800293,168.7496795654297,16.09791374206543,169.2981414794922" style="stroke-width: 0.0703213; fill-rule: nonzero; stroke: none; fill: rgb(64, 64, 64); fill-opacity: 0.6;"/></g></g><g id="shape-e56ed891-2ee7-8014-8007-2fb9fcb18aa2"><g class="fills" id="fills-e56ed891-2ee7-8014-8007-2fb9fcb18aa2"><path d="M16.09791374206543,113.00492858886719L9.25050163269043,119.85429382324219L2.4041881561279297,113.00492858886719C1.8538951873779297,112.44981384277344,0.9626598358154297,112.44981384277344,0.4128551185131073,113.00492858886719C-0.1381702721118927,113.55335998535156,-0.1381702721118927,114.44294738769531,0.4128551185131073,114.99784851074219L7.25892448425293,121.84739685058594L0.4128551185131073,128.6969451904297C-0.1381702721118927,129.2518768310547,-0.1381702721118927,130.1418914794922,0.4128551185131073,130.6901092529297C0.9626598358154297,131.2454376220703,1.8538951873779297,131.2454376220703,2.4041881561279297,130.6901092529297L9.25050163269043,123.84101867675781L16.09791374206543,130.6901092529297C16.64808464050293,131.2454376220703,17.53980827331543,131.2454376220703,18.08912467956543,130.6901092529297C18.63929557800293,130.1418914794922,18.63929557800293,129.2518768310547,18.08912467956543,128.6969451904297L11.24305534362793,121.84739685058594L18.08912467956543,114.99784851074219C18.63929557800293,114.44294738769531,18.63929557800293,113.55335998535156,18.08912467956543,113.00492858886719C17.53931999206543,112.44981384277344,16.64710807800293,112.44981384277344,16.09791374206543,113.00492858886719" style="stroke-width: 0.0703213; fill-rule: nonzero; stroke: none; fill: rgb(64, 64, 64); fill-opacity: 0.6;"/></g></g><g id="shape-e56ed891-2ee7-8014-8007-2fb9fcb18aa3"><g class="fills" id="fills-e56ed891-2ee7-8014-8007-2fb9fcb18aa3"><path d="M16.09791374206543,56.70460510253906L9.25050163269043,63.56086730957031L2.4041881561279297,56.70460510253906C1.8538951873779297,56.15641784667969,0.9626598358154297,56.15641784667969,0.4128551185131073,56.70460510253906C-0.1381702721118927,57.25996398925781,-0.1381702721118927,58.14952087402344,0.4128551185131073,58.69822692871094L7.25892448425293,65.55400085449219L0.4128551185131073,72.40354919433594C-0.1381702721118927,72.95198059082031,-0.1381702721118927,73.84800720214844,0.4128551185131073,74.39671325683594C0.9626598358154297,74.94511413574219,1.8538951873779297,74.94511413574219,2.4041881561279297,74.39671325683594L9.25050163269043,67.54713439941406L16.09791374206543,74.39671325683594C16.64808464050293,74.95207214355469,17.53980827331543,74.95207214355469,18.08912467956543,74.39671325683594C18.63929557800293,73.84800720214844,18.63929557800293,72.95198059082031,18.08912467956543,72.40354919433594L11.24305534362793,65.55400085449219L18.08912467956543,58.69822692871094C18.63929557800293,58.14952087402344,18.63929557800293,57.25996398925781,18.08912467956543,56.70460510253906C17.53931999206543,56.15641784667969,16.64710807800293,56.15641784667969,16.09791374206543,56.70460510253906" style="stroke-width: 0.0703213; fill-rule: nonzero; stroke: none; fill: rgb(64, 64, 64); fill-opacity: 0.6;"/></g></g><g id="shape-e56ed891-2ee7-8014-8007-2fb9fcb18aa4"><g class="fills" id="fills-e56ed891-2ee7-8014-8007-2fb9fcb18aa4"><path d="M16.09791374206543,0.4111793637275696L9.25050163269043,7.267716407775879L2.4041881561279297,0.4111793637275696C1.8538951873779297,-0.13700789213180542,0.9626598358154297,-0.13700789213180542,0.4128551185131073,0.4111793637275696C-0.1381702721118927,0.9668129086494446,-0.1381702721118927,1.8561562299728394,0.4128551185131073,2.4048011302948L7.25892448425293,9.260575294494629L0.4128551185131073,16.110183715820312C-0.1381702721118927,16.658828735351562,-0.1381702721118927,17.554641723632812,0.4128551185131073,18.103286743164062C0.9626598358154297,18.651931762695312,1.8538951873779297,18.651931762695312,2.4041881561279297,18.103286743164062L9.25050163269043,11.253739356994629L16.09791374206543,18.103286743164062C16.64808464050293,18.651931762695312,17.53980827331543,18.651931762695312,18.08912467956543,18.103286743164062C18.63929557800293,17.554641723632812,18.63929557800293,16.658828735351562,18.08912467956543,16.110183715820312L11.24305534362793,9.260575294494629L18.08912467956543,2.4048011302948C18.63929557800293,1.8561562299728394,18.63929557800293,0.9668129086494446,18.08912467956543,0.4111793637275696C17.53931999206543,-0.13700789213180542,16.64710807800293,-0.13700789213180542,16.09791374206543,0.4111793637275696" style="stroke-width: 0.0703213; fill-rule: nonzero; stroke: none; fill: rgb(64, 64, 64); fill-opacity: 0.6;"/></g></g></g></svg>