<svg width="152.026" xmlns="http://www.w3.org/2000/svg" height="95.169" id="screenshot-e56ed891-2ee7-8014-8007-2fb9fcb18a9b" viewBox="0 0 152.026 95.169" xmlns:xlink="http://www.w3.org/1999/xlink" fill="none" version="1.1"><g id="shape-e56ed891-2ee7-8014-8007-2fb9fcb18a9b" rx="0" ry="0" style="fill: rgb(0, 0, 0);"><g id="shape-e56ed891-2ee7-8014-8007-2fb9fcb18abe"><g class="fills" id="fills-e56ed891-2ee7-8014-8007-2fb9fcb18abe"><path d="M5.585852146148682,-0.00028874637791886926L11.172155380249023,-0.00028874637791886926L8.379308700561523,4.845536231994629L5.585852146148682,9.686295509338379L2.7934937477111816,4.845536231994629L0.000036617951991502196,-0.00028874637791886926L5.585852146148682,-0.00028874637791886926" style="stroke-width: 0.0972677; fill-rule: nonzero; stroke: none; fill: rgb(62, 62, 62); fill-opacity: 0.6;"/></g></g><g id="shape-e56ed891-2ee7-8014-8007-2fb9fcb18abf"><g class="fills" id="fills-e56ed891-2ee7-8014-8007-2fb9fcb18abf"><path d="M29.061681747436523,-0.00028874637791886926L34.647987365722656,-0.00028874637791886926L31.855138778686523,4.845536231994629L29.061681747436523,9.686295509338379L26.268712997436523,4.845536231994629L23.475744247436523,-0.00028874637791886926L29.061681747436523,-0.00028874637791886926" style="stroke-width: 0.0972677; fill-rule: nonzero; stroke: none; fill: rgb(62, 62, 62); fill-opacity: 0.6;"/></g></g><g id="shape-e56ed891-2ee7-8014-8007-2fb9fcb18ac0"><g class="fills" id="fills-e56ed891-2ee7-8014-8007-2fb9fcb18ac0"><path d="M52.537391662597656,-0.00028874637791886926L58.123329162597656,-0.00028874637791886926L55.330848693847656,4.845536231994629L52.537391662597656,9.686295509338379L49.744056701660156,4.845536231994629L46.951698303222656,-0.00028874637791886926L52.537391662597656,-0.00028874637791886926" style="stroke-width: 0.0972677; fill-rule: nonzero; stroke: none; fill: rgb(62, 62, 62); fill-opacity: 0.6;"/></g></g><g id="shape-e56ed891-2ee7-8014-8007-2fb9fcb18ac1"><g class="fills" id="fills-e56ed891-2ee7-8014-8007-2fb9fcb18ac1"><path d="M76.01371002197266,-0.00028874637791886926L81.59915924072266,-0.00028874637791886926L78.80716705322266,4.845536231994629L76.01371002197266,9.686295509338379L73.22037506103516,4.845536231994629L70.42691802978516,-0.00028874637791886926L76.01371002197266,-0.00028874637791886926" style="stroke-width: 0.0972677; fill-rule: nonzero; stroke: none; fill: rgb(62, 62, 62); fill-opacity: 0.6;"/></g></g><g id="shape-e56ed891-2ee7-8014-8007-2fb9fcb18ac2"><g class="fills" id="fills-e56ed891-2ee7-8014-8007-2fb9fcb18ac2"><path d="M99.48905181884766,-0.00028874637791886926L105.07498931884766,-0.00028874637791886926L102.28250885009766,4.845536231994629L99.48905181884766,9.686295509338379L96.69657135009766,4.845536231994629L93.90262603759766,-0.00028874637791886926L99.48905181884766,-0.00028874637791886926" style="stroke-width: 0.0972677; fill-rule: nonzero; stroke: none; fill: rgb(62, 62, 62); fill-opacity: 0.6;"/></g></g><g id="shape-e56ed891-2ee7-8014-8007-2fb9fcb18ac3"><g class="fills" id="fills-e56ed891-2ee7-8014-8007-2fb9fcb18ac3"><path d="M122.96439361572266,-0.00028874637791886926L128.55032348632812,-0.00028874637791886926L125.75687408447266,4.845536231994629L122.96439361572266,9.686295509338379L120.17240142822266,4.845536231994629L117.37845611572266,-0.00028874637791886926L122.96439361572266,-0.00028874637791886926" style="stroke-width: 0.0972677; fill-rule: nonzero; stroke: none; fill: rgb(62, 62, 62); fill-opacity: 0.6;"/></g></g><g id="shape-e56ed891-2ee7-8014-8007-2fb9fcb18ac4"><g class="fills" id="fills-e56ed891-2ee7-8014-8007-2fb9fcb18ac4"><path d="M146.43972778320312,-0.00028874637791886926L152.02566528320312,-0.00028874637791886926L149.23220825195312,4.845536231994629L146.43972778320312,9.686295509338379L143.64627075195312,4.845536231994629L140.85293579101562,-0.00028874637791886926L146.43972778320312,-0.00028874637791886926" style="stroke-width: 0.0972677; fill-rule: nonzero; stroke: none; fill: rgb(62, 62, 62); fill-opacity: 0.6;"/></g></g><g id="shape-e56ed891-2ee7-8014-8007-2fb9fcb18ac5"><g class="fills" id="fills-e56ed891-2ee7-8014-8007-2fb9fcb18ac5"><path d="M5.585852146148682,28.49760627746582L11.172155380249023,28.49760627746582L8.379308700561523,33.33833312988281L5.585852146148682,38.17884826660156L2.7934937477111816,33.33833312988281L0.000036617951991502196,28.49760627746582L5.585852146148682,28.49760627746582" style="stroke-width: 0.0972677; fill-rule: nonzero; stroke: none; fill: rgb(62, 62, 62); fill-opacity: 0.6;"/></g></g><g id="shape-e56ed891-2ee7-8014-8007-2fb9fcb18ac6"><g class="fills" id="fills-e56ed891-2ee7-8014-8007-2fb9fcb18ac6"><path d="M29.061681747436523,28.49760627746582L34.647987365722656,28.49760627746582L31.855138778686523,33.33833312988281L29.061681747436523,38.17884826660156L26.268712997436523,33.33833312988281L23.475744247436523,28.49760627746582L29.061681747436523,28.49760627746582" style="stroke-width: 0.0972677; fill-rule: nonzero; stroke: none; fill: rgb(62, 62, 62); fill-opacity: 0.6;"/></g></g><g id="shape-e56ed891-2ee7-8014-8007-2fb9fcb18ac7"><g class="fills" id="fills-e56ed891-2ee7-8014-8007-2fb9fcb18ac7"><path d="M52.537391662597656,28.49760627746582L58.123329162597656,28.49760627746582L55.330848693847656,33.33833312988281L52.537391662597656,38.17884826660156L49.744056701660156,33.33833312988281L46.951698303222656,28.49760627746582L52.537391662597656,28.49760627746582" style="stroke-width: 0.0972677; fill-rule: nonzero; stroke: none; fill: rgb(62, 62, 62); fill-opacity: 0.6;"/></g></g><g id="shape-e56ed891-2ee7-8014-8007-2fb9fcb18ac8"><g class="fills" id="fills-e56ed891-2ee7-8014-8007-2fb9fcb18ac8"><path d="M76.01371002197266,28.49760627746582L81.59915924072266,28.49760627746582L78.80716705322266,33.33833312988281L76.01371002197266,38.17884826660156L73.22037506103516,33.33833312988281L70.42691802978516,28.49760627746582L76.01371002197266,28.49760627746582" style="stroke-width: 0.0972677; fill-rule: nonzero; stroke: none; fill: rgb(62, 62, 62); fill-opacity: 0.6;"/></g></g><g id="shape-e56ed891-2ee7-8014-8007-2fb9fcb18ac9"><g class="fills" id="fills-e56ed891-2ee7-8014-8007-2fb9fcb18ac9"><path d="M99.48905181884766,28.49760627746582L105.07498931884766,28.49760627746582L102.28250885009766,33.33833312988281L99.48905181884766,38.17884826660156L96.69657135009766,33.33833312988281L93.90262603759766,28.49760627746582L99.48905181884766,28.49760627746582" style="stroke-width: 0.0972677; fill-rule: nonzero; stroke: none; fill: rgb(62, 62, 62); fill-opacity: 0.6;"/></g></g><g id="shape-e56ed891-2ee7-8014-8007-2fb9fcb18aca"><g class="fills" id="fills-e56ed891-2ee7-8014-8007-2fb9fcb18aca"><path d="M122.96439361572266,28.49760627746582L128.55032348632812,28.49760627746582L125.75687408447266,33.33833312988281L122.96439361572266,38.17884826660156L120.17240142822266,33.33833312988281L117.37845611572266,28.49760627746582L122.96439361572266,28.49760627746582" style="stroke-width: 0.0972677; fill-rule: nonzero; stroke: none; fill: rgb(62, 62, 62); fill-opacity: 0.6;"/></g></g><g id="shape-e56ed891-2ee7-8014-8007-2fb9fcb18acb"><g class="fills" id="fills-e56ed891-2ee7-8014-8007-2fb9fcb18acb"><path d="M146.43972778320312,28.49760627746582L152.02566528320312,28.49760627746582L149.23220825195312,33.33833312988281L146.43972778320312,38.17884826660156L143.64627075195312,33.33833312988281L140.85293579101562,28.49760627746582L146.43972778320312,28.49760627746582" style="stroke-width: 0.0972677; fill-rule: nonzero; stroke: none; fill: rgb(62, 62, 62); fill-opacity: 0.6;"/></g></g><g id="shape-e56ed891-2ee7-8014-8007-2fb9fcb18acc"><g class="fills" id="fills-e56ed891-2ee7-8014-8007-2fb9fcb18acc"><path d="M5.585852146148682,56.99018859863281L11.172155380249023,56.99018859863281L8.379308700561523,61.83094787597656L5.585852146148682,66.67628479003906L2.7934937477111816,61.83094787597656L0.000036617951991502196,56.99018859863281L5.585852146148682,56.99018859863281" style="stroke-width: 0.0972677; fill-rule: nonzero; stroke: none; fill: rgb(62, 62, 62); fill-opacity: 0.6;"/></g></g><g id="shape-e56ed891-2ee7-8014-8007-2fb9fcb18acd"><g class="fills" id="fills-e56ed891-2ee7-8014-8007-2fb9fcb18acd"><path d="M29.061681747436523,56.99018859863281L34.647987365722656,56.99018859863281L31.855138778686523,61.83094787597656L29.061681747436523,66.67628479003906L26.268712997436523,61.83094787597656L23.475744247436523,56.99018859863281L29.061681747436523,56.99018859863281" style="stroke-width: 0.0972677; fill-rule: nonzero; stroke: none; fill: rgb(62, 62, 62); fill-opacity: 0.6;"/></g></g><g id="shape-e56ed891-2ee7-8014-8007-2fb9fcb18ace"><g class="fills" id="fills-e56ed891-2ee7-8014-8007-2fb9fcb18ace"><path d="M52.537391662597656,56.99018859863281L58.123329162597656,56.99018859863281L55.330848693847656,61.83094787597656L52.537391662597656,66.67628479003906L49.744056701660156,61.83094787597656L46.951698303222656,56.99018859863281L52.537391662597656,56.99018859863281" style="stroke-width: 0.0972677; fill-rule: nonzero; stroke: none; fill: rgb(62, 62, 62); fill-opacity: 0.6;"/></g></g><g id="shape-e56ed891-2ee7-8014-8007-2fb9fcb18acf"><g class="fills" id="fills-e56ed891-2ee7-8014-8007-2fb9fcb18acf"><path d="M76.01371002197266,56.99018859863281L81.59915924072266,56.99018859863281L78.80716705322266,61.83094787597656L76.01371002197266,66.67628479003906L73.22037506103516,61.83094787597656L70.42691802978516,56.99018859863281L76.01371002197266,56.99018859863281" style="stroke-width: 0.0972677; fill-rule: nonzero; stroke: none; fill: rgb(62, 62, 62); fill-opacity: 0.6;"/></g></g><g id="shape-e56ed891-2ee7-8014-8007-2fb9fcb18ad0"><g class="fills" id="fills-e56ed891-2ee7-8014-8007-2fb9fcb18ad0"><path d="M99.48905181884766,56.99018859863281L105.07498931884766,56.99018859863281L102.28250885009766,61.83094787597656L99.48905181884766,66.67628479003906L96.69657135009766,61.83094787597656L93.90262603759766,56.99018859863281L99.48905181884766,56.99018859863281" style="stroke-width: 0.0972677; fill-rule: nonzero; stroke: none; fill: rgb(62, 62, 62); fill-opacity: 0.6;"/></g></g><g id="shape-e56ed891-2ee7-8014-8007-2fb9fcb18ad1"><g class="fills" id="fills-e56ed891-2ee7-8014-8007-2fb9fcb18ad1"><path d="M122.96439361572266,56.99018859863281L128.55032348632812,56.99018859863281L125.75687408447266,61.83094787597656L122.96439361572266,66.67628479003906L120.17240142822266,61.83094787597656L117.37845611572266,56.99018859863281L122.96439361572266,56.99018859863281" style="stroke-width: 0.0972677; fill-rule: nonzero; stroke: none; fill: rgb(62, 62, 62); fill-opacity: 0.6;"/></g></g><g id="shape-e56ed891-2ee7-8014-8007-2fb9fcb18ad2"><g class="fills" id="fills-e56ed891-2ee7-8014-8007-2fb9fcb18ad2"><path d="M146.43972778320312,56.99018859863281L152.02566528320312,56.99018859863281L149.23220825195312,61.83094787597656L146.43972778320312,66.67628479003906L143.64627075195312,61.83094787597656L140.85293579101562,56.99018859863281L146.43972778320312,56.99018859863281" style="stroke-width: 0.0972677; fill-rule: nonzero; stroke: none; fill: rgb(62, 62, 62); fill-opacity: 0.6;"/></g></g><g id="shape-e56ed891-2ee7-8014-8007-2fb9fcb18ad3"><g class="fills" id="fills-e56ed891-2ee7-8014-8007-2fb9fcb18ad3"><path d="M5.585852146148682,85.48759460449219L11.172155380249023,85.48759460449219L8.379308700561523,90.32835388183594L5.585852146148682,95.16889953613281L2.7934937477111816,90.32835388183594L0.000036617951991502196,85.48759460449219L5.585852146148682,85.48759460449219" style="stroke-width: 0.0972677; fill-rule: nonzero; stroke: none; fill: rgb(62, 62, 62); fill-opacity: 0.6;"/></g></g><g id="shape-e56ed891-2ee7-8014-8007-2fb9fcb18ad4"><g class="fills" id="fills-e56ed891-2ee7-8014-8007-2fb9fcb18ad4"><path d="M29.061681747436523,85.48759460449219L34.647987365722656,85.48759460449219L31.855138778686523,90.32835388183594L29.061681747436523,95.16889953613281L26.268712997436523,90.32835388183594L23.475744247436523,85.48759460449219L29.061681747436523,85.48759460449219" style="stroke-width: 0.0972677; fill-rule: nonzero; stroke: none; fill: rgb(62, 62, 62); fill-opacity: 0.6;"/></g></g><g id="shape-e56ed891-2ee7-8014-8007-2fb9fcb18ad5"><g class="fills" id="fills-e56ed891-2ee7-8014-8007-2fb9fcb18ad5"><path d="M52.537391662597656,85.48759460449219L58.123329162597656,85.48759460449219L55.330848693847656,90.32835388183594L52.537391662597656,95.16889953613281L49.744056701660156,90.32835388183594L46.951698303222656,85.48759460449219L52.537391662597656,85.48759460449219" style="stroke-width: 0.0972677; fill-rule: nonzero; stroke: none; fill: rgb(62, 62, 62); fill-opacity: 0.6;"/></g></g><g id="shape-e56ed891-2ee7-8014-8007-2fb9fcb18ad6"><g class="fills" id="fills-e56ed891-2ee7-8014-8007-2fb9fcb18ad6"><path d="M76.01371002197266,85.48759460449219L81.59915924072266,85.48759460449219L78.80716705322266,90.32835388183594L76.01371002197266,95.16889953613281L73.22037506103516,90.32835388183594L70.42691802978516,85.48759460449219L76.01371002197266,85.48759460449219" style="stroke-width: 0.0972677; fill-rule: nonzero; stroke: none; fill: rgb(62, 62, 62); fill-opacity: 0.6;"/></g></g><g id="shape-e56ed891-2ee7-8014-8007-2fb9fcb18ad7"><g class="fills" id="fills-e56ed891-2ee7-8014-8007-2fb9fcb18ad7"><path d="M99.48905181884766,85.48759460449219L105.07498931884766,85.48759460449219L102.28250885009766,90.32835388183594L99.48905181884766,95.16889953613281L96.69657135009766,90.32835388183594L93.90262603759766,85.48759460449219L99.48905181884766,85.48759460449219" style="stroke-width: 0.0972677; fill-rule: nonzero; stroke: none; fill: rgb(62, 62, 62); fill-opacity: 0.6;"/></g></g><g id="shape-e56ed891-2ee7-8014-8007-2fb9fcb18ad8"><g class="fills" id="fills-e56ed891-2ee7-8014-8007-2fb9fcb18ad8"><path d="M122.96439361572266,85.48759460449219L128.55032348632812,85.48759460449219L125.75687408447266,90.32835388183594L122.96439361572266,95.16889953613281L120.17240142822266,90.32835388183594L117.37845611572266,85.48759460449219L122.96439361572266,85.48759460449219" style="stroke-width: 0.0972677; fill-rule: nonzero; stroke: none; fill: rgb(62, 62, 62); fill-opacity: 0.6;"/></g></g><g id="shape-e56ed891-2ee7-8014-8007-2fb9fcb18ad9"><g class="fills" id="fills-e56ed891-2ee7-8014-8007-2fb9fcb18ad9"><path d="M146.43972778320312,85.48759460449219L152.02566528320312,85.48759460449219L149.23220825195312,90.32835388183594L146.43972778320312,95.16889953613281L143.64627075195312,90.32835388183594L140.85293579101562,85.48759460449219L146.43972778320312,85.48759460449219" style="stroke-width: 0.0972677; fill-rule: nonzero; stroke: none; fill: rgb(62, 62, 62); fill-opacity: 0.6;"/></g></g></g></svg>