<svg width="36" xmlns="http://www.w3.org/2000/svg" height="36" id="screenshot-e4d845e1-ac08-8069-8007-1e4a4bba5dea" viewBox="0 0 36 36" xmlns:xlink="http://www.w3.org/1999/xlink" fill="none" version="1.1"><g id="shape-e4d845e1-ac08-8069-8007-1e4a4bba5dea" width="16" height="16" rx="0" ry="0" style="fill: rgb(0, 0, 0);"><g id="shape-e4d845e1-ac08-8069-8007-1e4a4bbb9fb8" style="display: none;"><g class="fills" id="fills-e4d845e1-ac08-8069-8007-1e4a4bbb9fb8"><rect width="36" height="36" x="0" transform="matrix(1.000000, 0.000000, 0.000000, 1.000000, 0.000000, 0.000000)" style="fill: none;" ry="0" fill="none" rx="0" y="0"/></g></g><g id="shape-e4d845e1-ac08-8069-8007-1e4a4bbbe28f" rx="0" ry="0" style="fill: rgb(0, 0, 0);"><g id="shape-e4d845e1-ac08-8069-8007-1e4a4bbbe290"><g class="fills" id="fills-e4d845e1-ac08-8069-8007-1e4a4bbbe290"><ellipse cx="18.000000000000114" cy="18" rx="3.206249999999841" ry="3.206249999999727" transform="matrix(1.000000, 0.000000, 0.000000, 1.000000, 0.000000, 0.000000)" style="fill: rgb(97, 218, 251);"/></g></g><g id="shape-e4d845e1-ac08-8069-8007-1e4a4bbc7285"><g class="fills" id="fills-e4d845e1-ac08-8069-8007-1e4a4bbc7285"><path d="M30.177978515625,12.712646484375C29.559326171875,12.487548828125,28.912353515625,12.262451171875,28.237548828125,12.065673828125C28.40625,11.390625,28.546875,10.715576171875,28.659423828125,10.068603515625C29.25,6.356201171875,28.603271484375,3.740478515625,26.802978515625,2.728271484375C26.268798828125,2.418701171875,25.677978515625,2.278076171875,25.003173828125,2.278076171875C23.034423828125,2.278076171875,20.53125,3.740478515625,18,6.1875C15.46875,3.740478515625,12.965576171875,2.278076171875,10.996826171875,2.278076171875C10.322021484375,2.278076171875,9.731201171875,2.418701171875,9.197021484375,2.728271484375C7.396728515625,3.768798828125,6.75,6.384521484375,7.340576171875,10.068603515625C7.453125,10.715576171875,7.59375,11.390625,7.762451171875,12.065673828125C7.087646484375,12.262451171875,6.440673828125,12.459228515625,5.822021484375,12.712646484375C2.306396484375,14.0625,0.393798828125,15.918701171875,0.393798828125,18C0.393798828125,20.081298828125,2.334228515625,21.9375,5.822021484375,23.287353515625C6.440673828125,23.512451171875,7.087646484375,23.737548828125,7.762451171875,23.934326171875C7.59375,24.609375,7.453125,25.284423828125,7.340576171875,25.931396484375C6.75,29.643798828125,7.396728515625,32.259521484375,9.197021484375,33.271728515625C9.731201171875,33.581298828125,10.322021484375,33.721923828125,10.996826171875,33.721923828125C12.993896484375,33.721923828125,15.496826171875,32.259521484375,18,29.8125C20.53125,32.259521484375,23.034423828125,33.721923828125,25.003173828125,33.721923828125C25.677978515625,33.721923828125,26.268798828125,33.581298828125,26.802978515625,33.271728515625C28.603271484375,32.231201171875,29.25,29.615478515625,28.659423828125,25.931396484375C28.546875,25.284423828125,28.40625,24.609375,28.237548828125,23.934326171875C28.912353515625,23.737548828125,29.559326171875,23.540771484375,30.177978515625,23.287353515625C33.693603515625,21.9375,35.606201171875,20.081298828125,35.606201171875,18C35.606201171875,15.918701171875,33.693603515625,14.0625,30.177978515625,12.712646484375M26.015625,4.134521484375C27.168701171875,4.809326171875,27.5625,6.890625,27.084228515625,9.84375C27,10.434326171875,26.859375,11.052978515625,26.690673828125,11.699951171875C25.228271484375,11.362548828125,23.681396484375,11.137451171875,22.050048828125,10.996826171875C21.09375,9.646728515625,20.109375,8.4375,19.125,7.340576171875C21.206298828125,5.287353515625,23.315673828125,3.881103515625,25.03125,3.881103515625C25.396728515625,3.881103515625,25.734375,3.965576171875,26.015625,4.134521484375M22.865478515625,20.8125C22.359375,21.712646484375,21.768798828125,22.612548828125,21.150146484375,23.512451171875C20.109375,23.596923828125,19.068603515625,23.625,18,23.625C16.903076171875,23.625,15.862548828125,23.596923828125,14.849853515625,23.512451171875C14.231201171875,22.612548828125,13.668701171875,21.712646484375,13.162353515625,20.8125C12.628173828125,19.884521484375,12.121826171875,18.927978515625,11.671875,18C12.121826171875,17.072021484375,12.628173828125,16.115478515625,13.162353515625,15.1875C13.668701171875,14.287353515625,14.259521484375,13.387451171875,14.878173828125,12.487548828125C15.918701171875,12.403076171875,16.959228515625,12.375,18.028076171875,12.375C19.125,12.375,20.165771484375,12.403076171875,21.177978515625,12.487548828125C21.796875,13.387451171875,22.359375,14.287353515625,22.865478515625,15.1875C23.400146484375,16.115478515625,23.90625,17.072021484375,24.356201171875,18C23.878173828125,18.927978515625,23.400146484375,19.856201171875,22.865478515625,20.8125M25.199951171875,19.884521484375C25.621826171875,20.868896484375,25.959228515625,21.824951171875,26.268798828125,22.78125C25.3125,23.006103515625,24.300048828125,23.175048828125,23.231201171875,23.315673828125C23.568603515625,22.78125,23.934326171875,22.21875,24.243896484375,21.628173828125C24.581298828125,21.037353515625,24.890625,20.447021484375,25.199951171875,19.884521484375M18,27.506103515625C17.324951171875,26.775146484375,16.677978515625,25.987548828125,16.059326171875,25.171875C16.706298828125,25.199951171875,17.353271484375,25.228271484375,18,25.228271484375C18.646728515625,25.228271484375,19.293701171875,25.199951171875,19.940673828125,25.171875C19.322021484375,25.987548828125,18.675048828125,26.775146484375,18,27.506103515625M12.768798828125,23.287353515625C11.699951171875,23.146728515625,10.6875,22.978271484375,9.731201171875,22.753173828125C10.040771484375,21.824951171875,10.378173828125,20.840576171875,10.800048828125,19.856201171875C11.109375,20.418701171875,11.418701171875,21.009521484375,11.756103515625,21.572021484375C12.09375,22.190673828125,12.431396484375,22.724853515625,12.768798828125,23.287353515625M10.800048828125,16.115478515625C10.378173828125,15.131103515625,10.040771484375,14.175048828125,9.731201171875,13.21875C10.6875,12.993896484375,11.699951171875,12.824951171875,12.768798828125,12.684326171875C12.431396484375,13.21875,12.065673828125,13.78125,11.756103515625,14.371826171875C11.418701171875,14.962646484375,11.109375,15.552978515625,10.800048828125,16.115478515625M18,8.493896484375C18.675048828125,9.224853515625,19.322021484375,10.012451171875,19.940673828125,10.828125C19.293701171875,10.800048828125,18.646728515625,10.771728515625,18,10.771728515625C17.353271484375,10.771728515625,16.706298828125,10.800048828125,16.059326171875,10.828125C16.677978515625,10.012451171875,17.324951171875,9.224853515625,18,8.493896484375M24.243896484375,14.400146484375L23.231201171875,12.712646484375C24.300048828125,12.853271484375,25.3125,13.021728515625,26.268798828125,13.246826171875C25.959228515625,14.175048828125,25.621826171875,15.159423828125,25.199951171875,16.143798828125C24.890625,15.552978515625,24.581298828125,14.962646484375,24.243896484375,14.400146484375M8.915771484375,9.84375C8.4375,6.890625,8.831298828125,4.809326171875,9.984375,4.134521484375C10.265625,3.965576171875,10.603271484375,3.881103515625,10.96875,3.881103515625C12.65625,3.881103515625,14.765625,5.259521484375,16.875,7.340576171875C15.890625,8.409423828125,14.90625,9.646728515625,13.949951171875,10.996826171875C12.318603515625,11.137451171875,10.771728515625,11.390625,9.309326171875,11.699951171875C9.140625,11.052978515625,9.028076171875,10.434326171875,8.915771484375,9.84375M1.96875,18C1.96875,16.677978515625,3.572021484375,15.271728515625,6.384521484375,14.231201171875C6.947021484375,14.006103515625,7.565673828125,13.809326171875,8.184326171875,13.640625C8.634521484375,15.046875,9.197021484375,16.537353515625,9.871826171875,18.028076171875C9.197021484375,19.518798828125,8.606201171875,20.981201171875,8.184326171875,22.387451171875C4.302978515625,21.262451171875,1.96875,19.574951171875,1.96875,18M9.984375,31.865478515625C8.831298828125,31.190673828125,8.4375,29.109375,8.915771484375,26.15625C9,25.565673828125,9.140625,24.947021484375,9.309326171875,24.300048828125C10.771728515625,24.637451171875,12.318603515625,24.862548828125,13.949951171875,25.003173828125C14.90625,26.353271484375,15.890625,27.5625,16.875,28.659423828125C14.793701171875,30.712646484375,12.684326171875,32.118896484375,10.96875,32.118896484375C10.603271484375,32.118896484375,10.265625,32.034423828125,9.984375,31.865478515625M27.084228515625,26.15625C27.5625,29.109375,27.168701171875,31.190673828125,26.015625,31.865478515625C25.734375,32.034423828125,25.396728515625,32.118896484375,25.03125,32.118896484375C23.34375,32.118896484375,21.234375,30.740478515625,19.125,28.659423828125C20.109375,27.590576171875,21.09375,26.353271484375,22.050048828125,25.003173828125C23.681396484375,24.862548828125,25.228271484375,24.609375,26.690673828125,24.300048828125C26.859375,24.947021484375,26.971923828125,25.565673828125,27.084228515625,26.15625M29.615478515625,21.768798828125C29.052978515625,21.993896484375,28.434326171875,22.190673828125,27.815673828125,22.359375C27.365478515625,20.953125,26.802978515625,19.462646484375,26.128173828125,17.971923828125C26.802978515625,16.481201171875,27.393798828125,15.018798828125,27.815673828125,13.612548828125C31.697021484375,14.737548828125,34.03125,16.425048828125,34.03125,18C34.03125,19.322021484375,32.400146484375,20.728271484375,29.615478515625,21.768798828125" style="fill: rgb(97, 218, 251);"/></g></g></g></g></svg>