<svg width="36" xmlns="http://www.w3.org/2000/svg" height="36" id="screenshot-e4d845e1-ac08-8069-8007-1e56ae5599c6" viewBox="0 0 36 36" xmlns:xlink="http://www.w3.org/1999/xlink" fill="none" version="1.1"><g id="shape-e4d845e1-ac08-8069-8007-1e56ae5599c6" width="128" height="125" rx="0" ry="0" style="fill: rgb(0, 0, 0);"><g id="shape-e4d845e1-ac08-8069-8007-1e56ae566797" style="display: none;"><g class="fills" id="fills-e4d845e1-ac08-8069-8007-1e56ae566797"><rect width="36" height="36" x="0" transform="matrix(1.000000, 0.000000, 0.000000, 1.000000, 0.000000, 0.000000)" style="fill: none;" ry="0" fill="none" rx="0" y="0"/></g></g><g id="shape-e4d845e1-ac08-8069-8007-1e56ae566798"><g class="fills" id="fills-e4d845e1-ac08-8069-8007-1e56ae566798"><rect rx="8" ry="8" x="0" y="0" transform="matrix(1.000000, 0.000000, 0.000000, 1.000000, 0.000000, 0.000000)" width="36" height="35.94239999999991" style="fill: rgb(51, 0, 0);"/></g></g><g id="shape-e4d845e1-ac08-8069-8007-1e56ae569bd1"><g class="fills" id="fills-e4d845e1-ac08-8069-8007-1e56ae569bd1"><path d="M17.445068359375,21.56982421875L11.866455078125,21.56982421875L10.7313232421875,25.1802978515625C10.699462890625,25.316162109375,10.577880859375,25.4095458984375,10.4415283203125,25.40283203125L7.615966796875,25.40283203125C7.4549560546875,25.40283203125,7.3985595703125,25.3121337890625,7.4468994140625,25.1307373046875L12.2769775390625,10.8865966796875C12.3251953125,10.73828125,12.37353515625,10.5692138671875,12.421875,10.379638671875C12.485107421875,10.0496826171875,12.5174560546875,9.71435546875,12.5184326171875,9.378173828125C12.51171875,9.3304443359375,12.5274658203125,9.2823486328125,12.5606689453125,9.248291015625C12.5938720703125,9.214111328125,12.640869140625,9.1981201171875,12.6875,9.2049560546875L16.52734375,9.2049560546875C16.639892578125,9.2049560546875,16.704345703125,9.2462158203125,16.7205810546875,9.3287353515625L22.20263671875,25.155517578125C22.2508544921875,25.3206787109375,22.20263671875,25.403076171875,22.0577392578125,25.40283203125L18.9180908203125,25.40283203125C18.806640625,25.4154052734375,18.703369140625,25.34130859375,18.6766357421875,25.2298583984375ZM12.73583984375,18.453857421875L16.551513671875,18.453857421875L16.4971923828125,18.27001953125L16.4097900390625,17.9788818359375L16.3475341796875,17.7744140625L16.248046875,17.452392578125L16.0367431640625,16.7745361328125L15.850830078125,16.173583984375L15.3680419921875,14.6083984375C15.2479248046875,14.21923828125,15.132568359375,13.82861328125,15.0220947265625,13.4365234375L14.933837890625,13.1182861328125L14.83056640625,12.741943359375L14.673095703125,12.1588134765625L14.6435546875,12.0489501953125L14.6195068359375,12.0489501953125C14.4986572265625,12.6424560546875,14.3514404296875,13.2301025390625,14.178466796875,13.81005859375L13.8201904296875,14.990234375L13.623046875,15.642333984375L13.424072265625,16.3023681640625C13.38818359375,16.421630859375,13.352294921875,16.53955078125,13.3165283203125,16.656005859375L13.2095947265625,17.0013427734375L13.103271484375,17.338623046875L12.99755859375,17.66748046875L12.892333984375,17.9881591796875C12.857421875,18.09375,12.8226318359375,18.197998046875,12.787841796875,18.3006591796875ZM25.4625244140625,11.8262939453125C24.96435546875,11.8466796875,24.4813232421875,11.6488037109375,24.1343994140625,11.2822265625C23.7890625,10.900146484375,23.6064453125,10.3929443359375,23.6270751953125,9.8726806640625C23.609375,9.3568115234375,23.8070068359375,8.8577880859375,24.17041015625,8.5003662109375C24.51708984375,8.1595458984375,24.978759765625,7.9688720703125,25.4593505859375,7.9678955078125L25.5107421875,7.968505859375C26.0904541015625,7.968505859375,26.5452880859375,8.145751953125,26.8753662109375,8.500244140625C27.2117919921875,8.8721923828125,27.389892578125,9.365966796875,27.370361328125,9.8726806640625C27.3909912109375,10.3951416015625,27.2037353515625,10.9039306640625,26.8511962890625,11.282470703125C26.4954833984375,11.641357421875,26.013427734375,11.838134765625,25.51416015625,11.828125ZM23.796142578125,25.155517578125L23.796142578125,13.3348388671875C23.7960205078125,13.1864013671875,23.8604736328125,13.1121826171875,23.9893798828125,13.1121826171875L26.9599609375,13.1121826171875C27.088623046875,13.1121826171875,27.153076171875,13.1864013671875,27.1531982421875,13.3348388671875L27.1531982421875,25.155517578125C27.1531982421875,25.3206787109375,27.0887451171875,25.403076171875,26.9599609375,25.40283203125L24.0135498046875,25.40283203125C23.8763427734375,25.40283203125,23.8040771484375,25.328857421875,23.796875,25.1807861328125Z" style="fill: rgb(255, 154, 0);"/></g></g></g></svg>