<svg width="36" xmlns="http://www.w3.org/2000/svg" height="36" id="screenshot-e4d845e1-ac08-8069-8007-1e4a6331015f" viewBox="0 0 36 36" xmlns:xlink="http://www.w3.org/1999/xlink" fill="none" version="1.1"><g id="shape-e4d845e1-ac08-8069-8007-1e4a6331015f" width="16" height="16" rx="0" ry="0" style="fill: rgb(0, 0, 0);"><g id="shape-e4d845e1-ac08-8069-8007-1e4a6331c462" style="display: none;"><g class="fills" id="fills-e4d845e1-ac08-8069-8007-1e4a6331c462"><rect width="36" height="36" x="0" transform="matrix(1.000000, 0.000000, 0.000000, 1.000000, 0.000000, 0.000000)" style="fill: none;" ry="0" fill="none" rx="0" y="0"/></g></g><g id="shape-e4d845e1-ac08-8069-8007-1e4a6331c463"><g class="fills" id="fills-e4d845e1-ac08-8069-8007-1e4a6331c463"><path d="M13.5,4.5L18,4.5L18,13.5L13.5,13.5C11.0145263671875,13.5,9,11.4854736328125,9,9C9,6.5145263671875,11.0145263671875,4.5,13.5,4.5" style="fill: rgb(244, 81, 30);"/></g></g><g id="shape-e4d845e1-ac08-8069-8007-1e4a6331c464"><g class="fills" id="fills-e4d845e1-ac08-8069-8007-1e4a6331c464"><path d="M22.5,13.5L18,13.5L18,4.5L22.5,4.5C24.9854736328125,4.5,27,6.5145263671875,27,9C27,11.4854736328125,24.9854736328125,13.5,22.5,13.5" style="fill: rgb(255, 138, 101);"/></g></g><g id="shape-e4d845e1-ac08-8069-8007-1e4a63323820"><g class="fills" id="fills-e4d845e1-ac08-8069-8007-1e4a63323820"><rect rx="4" ry="4" x="18" y="13.5" transform="matrix(-1.000000, 0.000000, 0.000000, -1.000000, 45.000000, 36.000000)" width="9" height="9" style="fill: rgb(41, 182, 246);"/></g></g><g id="shape-e4d845e1-ac08-8069-8007-1e4a63323821"><g class="fills" id="fills-e4d845e1-ac08-8069-8007-1e4a63323821"><path d="M13.5,13.5L18,13.5L18,22.5L13.5,22.5C11.0145263671875,22.5,9,20.4854736328125,9,18C9,15.5145263671875,11.0145263671875,13.5,13.5,13.5" style="fill: rgb(124, 77, 255);"/></g></g><g id="shape-e4d845e1-ac08-8069-8007-1e4a63323822"><g class="fills" id="fills-e4d845e1-ac08-8069-8007-1e4a63323822"><path d="M13.5,22.5L18,22.5L18,27C18,29.4854736328125,15.9854736328125,31.5,13.5,31.5C11.0145263671875,31.5,9,29.4854736328125,9,27C9,24.5145263671875,11.0145263671875,22.5,13.5,22.5" style="fill: rgb(0, 230, 118);"/></g></g></g></svg>